<svg width="21" height="17" viewBox="0 0 21 17" fill="none" xmlns="http://www.w3.org/2000/svg">
<path opacity="0.6" d="M10.5088 9.58594C10.1396 9.58594 9.79688 9.41016 9.40137 9.02344L1.70215 1.38574C2.00977 1.0957 2.5459 0.955078 3.30176 0.955078H17.4697C18.3311 0.955078 18.9375 1.11328 19.2803 1.41211L11.6162 9.02344C11.2207 9.41016 10.8867 9.58594 10.5088 9.58594ZM0.875977 14.8945C0.717773 14.6221 0.638672 14.165 0.638672 13.5234V3.81152C0.638672 3.16113 0.726562 2.69531 0.884766 2.42285L7.17773 8.63672L0.875977 14.8945ZM20.1328 14.877L13.8398 8.63672L20.1152 2.44043C20.2734 2.71289 20.3525 3.16992 20.3525 3.81152V13.5234C20.3525 14.1562 20.2822 14.6045 20.1328 14.877ZM3.52148 16.3711C2.66016 16.3711 2.05371 16.2217 1.71094 15.9229L8.11816 9.55957L8.66309 10.1045C9.27832 10.6934 9.8584 10.9658 10.5088 10.9658C11.1592 10.9658 11.7393 10.6934 12.3457 10.1045L12.8994 9.55957L19.3242 15.9316C19.0078 16.2217 18.4629 16.3711 17.6982 16.3711H3.52148Z" fill="#B9B9CE"/>
</svg>
