<svg width="17" height="18" viewBox="0 0 17 18" fill="none" xmlns="http://www.w3.org/2000/svg">
<path opacity="0.6" d="M4.76465 12.6885C2.17188 10.0957 0.203125 6.98438 0.203125 4.41797C0.203125 3.27539 0.589844 2.25586 1.45996 1.42969C1.9873 0.928711 2.58496 0.665039 3.17383 0.665039C3.6748 0.665039 4.14062 0.858398 4.45703 1.30664L6.35547 3.97852C6.66309 4.40918 6.80371 4.76074 6.80371 5.07715C6.80371 5.49023 6.56641 5.85059 6.16211 6.26367L5.53809 6.90527C5.43262 7.00195 5.39746 7.125 5.39746 7.23926C5.39746 7.37109 5.4502 7.50293 5.50293 7.59961C5.79297 8.15332 6.61035 9.09375 7.48047 9.97266C8.35938 10.8428 9.30859 11.6602 9.85352 11.959C9.9502 12.0029 10.082 12.0557 10.2227 12.0557C10.3369 12.0557 10.46 12.0205 10.5566 11.9238L11.1982 11.291C11.6025 10.8867 11.9629 10.6582 12.376 10.6582C12.6924 10.6582 13.0527 10.7988 13.4746 11.0977L16.1729 13.0137C16.6211 13.3301 16.7969 13.7783 16.7969 14.2441C16.7969 14.8506 16.5068 15.457 16.041 15.9844C15.2324 16.8809 14.2217 17.2764 13.0703 17.2764C10.5039 17.2764 7.35742 15.2812 4.76465 12.6885Z" fill="#B9B9CE"/>
</svg>
